<?xml version="1.0" encoding="utf-8"?>
<!-- Generator: Adobe Illustrator 25.4.1, SVG Export Plug-In . SVG Version: 6.00 Build 0)  -->
<svg version="1.1" id="Layer_1" xmlns="http://www.w3.org/2000/svg" xmlns:xlink="http://www.w3.org/1999/xlink" x="0px" y="0px"
	 viewBox="0 0 1920 1080" style="enable-background:new 0 0 1920 1080;" xml:space="preserve">
<style type="text/css">
	.st0{fill:#FEFEFE;}
</style>
<g>
	<path class="st0" d="M1552.9,1044.5c-143.3-189.5-286.6-379-430.3-568.2c-8.3-11-10.1-17.2,0.2-28.9
		c70.7-79.5,140.4-159.9,210.4-240c53.8-61.5,107.6-123,164.5-188c-56,0-107.6,0.4-159.2-0.3c-13-0.2-21.4,4-29.8,13.7
		C1220,135,1130.7,236.6,1041.9,338.9c-9.8,11.3-14.6,11.4-23.8-0.9C941.7,236,864.5,134.7,788,32.8c-7.4-9.9-15-13.8-27.5-13.7
		c-109.7,0.5-219.3,0.2-329,0.4c-5.2,0-10.9-2-16.7,2.7c2.9,4,5.7,7.9,8.6,11.7c137.6,179.9,275.1,359.9,413.2,539.5
		c9.9,12.9,9.2,20-1.4,32c-123.7,140.3-246.7,281-369.7,421.9c-9.3,10.6-20.9,19.8-27.3,34.7c56,0,110.2-0.2,164.3,0.2
		c9.6,0.1,14.3-5.5,19.5-11.6c98.8-113,197.9-225.8,296.3-339.2c11-12.7,15.3-11.2,24.8,1.3c85.2,112.3,171.2,224,256.4,336.2
		c7.7,10.1,15.5,13.3,27.6,13.3c106.6-0.4,213.2-0.2,319.7-0.3c5.2,0,10.8,2,16.7-2.7C1560,1054.1,1556.5,1049.3,1552.9,1044.5z
		 M1265.3,956.4c-9.3,0-11.9-7.8-16.2-13.4c-120.9-157.8-241.7-315.7-362.5-473.6C801,357.5,715.3,245.5,629.7,133.6
		c-2.6-3.4-5.1-6.9-10.3-13.9c35,0,66.2,0.4,97.4-0.2c9.7-0.2,12.4,6.9,16.5,12.4c94.1,124.1,188,248.3,281.9,372.5
		c109.5,144.8,219,289.6,328.5,434.5c3.6,4.8,6.8,9.8,12.2,17.5C1323.8,956.4,1294.5,956.3,1265.3,956.4z"/>
</g>
</svg>
